<svg width="1420" height="257" viewBox="0 0 1420 257" fill="none" xmlns="http://www.w3.org/2000/svg">
<path d="M516.307 152.023C512.007 152.023 507.407 151.823 502.507 151.423C479.307 149.423 455.907 144.423 433.307 139.623C420.907 136.923 408.107 134.223 395.507 132.023C321.107 119.123 243.107 115.323 167.707 111.623L165.707 111.523C157.907 111.123 141.907 115.523 123.407 120.623C83.3071 131.723 28.4071 146.823 8.10706 127.023C4.10706 123.123 1.50706 117.923 0.607063 111.523C-0.492938 104.723 0.207062 96.4229 2.60706 86.8229L2.70706 86.6229L2.80706 86.8229C10.8071 97.4229 18.9071 105.023 27.3071 110.223C35.1071 115.023 43.3071 117.723 52.5071 118.523C69.9071 120.023 89.0071 114.223 111.107 107.623L112.507 107.223C143.907 97.8229 171.007 97.2229 199.707 96.5229C212.407 96.2229 225.607 95.9229 239.707 94.8229C260.707 93.2229 282.507 85.8229 303.507 78.6229C322.007 72.3229 341.007 65.8229 359.707 63.1229C369.807 61.7229 378.907 61.4229 387.607 62.3229C397.407 63.4229 406.407 65.9229 415.107 70.0229C437.507 80.5229 450.007 96.7229 461.107 111.023C478.207 133.223 493.007 152.323 537.807 145.823L540.007 145.523C548.007 144.323 557.807 142.923 568.307 141.223C569.607 140.723 570.907 140.323 572.307 139.823C581.507 136.523 591.007 133.023 602.807 129.823C613.207 127.023 623.607 126.523 633.707 126.023C638.407 125.823 643.007 125.623 647.507 125.123C649.907 124.423 652.107 123.623 654.107 122.923C673.207 115.923 683.507 100.923 694.407 84.9229C701.807 74.1229 709.407 62.9229 720.207 53.7229C722.207 52.0229 724.307 50.3229 726.507 48.6229C730.507 44.3229 735.007 40.3229 740.207 37.1229C753.807 28.4229 770.707 20.9229 788.807 15.4229C790.607 14.8229 792.407 14.3229 794.307 13.8229C804.907 10.2229 815.807 7.22286 826.707 4.92286C848.707 0.322856 869.307 -1.07714 888.007 0.822856C908.707 2.92286 926.207 9.02286 940.107 18.8229C961.007 33.7229 973.307 52.1229 985.107 69.8229C994.907 84.5229 1004.21 98.4229 1017.71 109.223C1032.91 121.423 1051.11 127.823 1075.21 129.523C1131.81 133.523 1187.41 109.423 1241.21 86.1229C1267.51 74.7229 1292.41 63.9229 1317.41 56.2229L1318.81 55.8229C1348.01 46.8229 1397.01 31.6229 1444.11 25.7229C1470.11 22.4229 1492.81 22.3229 1511.61 25.3229C1533.81 28.8229 1551.21 36.9229 1563.31 49.1229L1563.51 49.3229H1563.21C1474.91 40.7229 1386.21 49.3229 1299.71 74.8229C1274.31 82.3229 1248.51 94.0229 1223.71 105.423C1200.41 116.023 1176.41 127.023 1152.21 134.823C1125.01 143.523 1100.71 147.123 1077.91 145.723C1018.11 142.023 999.907 114.823 976.807 80.4229C967.907 67.0229 958.607 53.2229 946.007 39.1229C912.107 1.12286 847.707 -0.777144 794.107 14.2229C768.507 22.9229 744.607 35.2229 726.607 49.0229C718.107 58.2229 711.607 69.3229 705.407 80.1229C697.307 94.0229 689.707 107.123 678.307 115.323C668.707 122.123 658.407 124.523 647.507 125.623C627.007 131.923 595.107 137.523 568.307 141.723C551.807 147.323 537.507 152.023 516.307 152.023ZM164.607 111.323C164.907 111.323 165.307 111.323 165.607 111.323L167.607 111.423C243.007 115.123 321.007 118.923 395.407 131.823C408.007 134.023 420.807 136.723 433.207 139.423C455.807 144.223 479.207 149.323 502.407 151.223C531.107 153.623 547.707 148.623 567.007 141.723C556.807 143.323 547.407 144.723 539.707 145.823L537.507 146.123C492.707 152.723 477.807 133.523 460.707 111.223C449.707 96.9229 437.207 80.8229 414.807 70.3229C406.107 66.2229 397.107 63.7229 387.407 62.7229C378.707 61.8229 369.607 62.0229 359.607 63.5229C341.007 66.2229 321.907 72.7229 303.507 79.0229C282.407 86.2229 260.607 93.6229 239.607 95.2229C225.507 96.3229 212.307 96.6229 199.607 96.9229C170.907 97.6229 143.807 98.2229 112.507 107.623L111.107 108.023C88.9071 114.623 69.8071 120.423 52.4071 118.923C43.2071 118.123 35.0071 115.423 27.1071 110.623C18.7071 105.423 10.7071 97.8229 2.60706 87.3229C0.307063 96.8229 -0.392937 105.023 0.607063 111.723C1.60706 118.023 4.10706 123.223 8.10706 127.023C28.3071 146.723 83.2071 131.623 123.207 120.523C141.107 115.523 156.507 111.323 164.607 111.323ZM855.407 5.02286C872.207 5.02286 887.807 7.22286 901.707 11.5229C920.007 17.1229 934.907 26.3229 946.007 38.8229C958.707 53.0229 967.907 66.8229 976.807 80.2229C999.807 114.623 1018.01 141.823 1077.71 145.523C1100.51 146.923 1124.81 143.423 1152.01 134.623C1176.21 126.823 1200.21 115.923 1223.51 105.223C1248.41 93.8229 1274.11 82.1229 1299.61 74.6229C1386.01 49.1229 1474.61 40.5229 1562.91 49.1229C1550.81 37.0229 1533.51 29.0229 1511.51 25.5229C1492.71 22.5229 1470.01 22.7229 1444.11 25.9229C1397.01 31.9229 1348.11 47.0229 1318.91 56.0229L1317.51 56.4229C1292.51 64.1229 1267.61 74.9229 1241.31 86.3229C1191.51 107.923 1140.11 130.123 1087.81 130.123C1083.61 130.123 1079.41 130.023 1075.11 129.723C1051.01 128.023 1032.71 121.523 1017.51 109.323C1004.01 98.5229 994.707 84.5229 984.807 69.8229C972.907 52.1229 960.707 33.7229 939.807 18.8229C926.007 8.92286 908.507 2.92286 887.807 0.822856C869.107 -1.07714 848.507 0.322856 826.607 4.92286C816.907 6.92286 807.107 9.62286 797.607 12.7229C813.707 8.52286 830.207 5.92286 846.007 5.12286C849.107 5.12286 852.207 5.02286 855.407 5.02286ZM646.307 125.523C642.107 125.923 637.807 126.123 633.407 126.323C623.307 126.823 612.907 127.323 602.607 130.123C590.807 133.323 581.307 136.723 572.107 140.123C571.107 140.523 570.107 140.823 569.107 141.223C595.307 137.023 626.007 131.623 646.307 125.523ZM725.507 49.5229C723.607 51.0229 721.807 52.4229 720.107 53.9229C709.307 63.2229 701.707 74.3229 694.307 85.1229C683.407 101.123 673.207 116.123 653.907 123.123C652.107 123.723 650.207 124.423 648.207 125.023C658.707 123.923 668.607 121.523 677.907 114.923C689.307 106.723 696.907 93.6229 705.007 79.7229C711.107 69.3229 717.307 58.5229 725.507 49.5229ZM790.507 15.0229C771.607 20.6229 754.207 28.3229 740.107 37.2229C735.307 40.3229 731.107 43.9229 727.307 47.8229C744.307 35.0229 766.607 23.5229 790.507 15.0229Z" fill="#E21A43" fill-opacity="0.5"/>
<path d="M516.307 186.723C512.007 186.723 507.407 186.523 502.507 186.123C479.307 184.223 455.907 179.223 433.207 174.323C420.807 171.623 408.007 168.923 395.407 166.723C321.007 153.823 243.007 150.023 167.607 146.323L165.607 146.223C157.807 145.823 141.807 150.223 123.307 155.323C83.2071 166.423 28.3071 181.623 8.00706 161.823C4.00706 157.923 1.40706 152.723 0.507056 146.323C-0.592944 139.523 0.107056 131.223 2.50706 121.623L2.60706 121.423L2.70706 121.623C10.7071 132.223 18.8071 139.823 27.2071 145.023C35.0071 149.823 43.2071 152.523 52.4071 153.323C69.8071 154.823 88.9071 149.023 111.007 142.423L112.407 142.023C143.807 132.623 170.907 132.023 199.607 131.323C212.307 131.023 225.507 130.723 239.607 129.623C260.607 128.023 282.407 120.623 303.407 113.423C321.907 107.123 340.907 100.623 359.607 97.9229C369.707 96.5229 378.807 96.2229 387.507 97.1229C397.307 98.2229 406.307 100.723 415.007 104.823C437.407 115.323 449.907 131.523 461.007 145.823C478.107 168.023 492.907 187.123 537.707 180.623L539.907 180.323C547.907 179.123 557.707 177.723 568.207 176.023C569.507 175.523 570.807 175.123 572.207 174.623C581.407 171.323 590.907 167.823 602.707 164.623C613.107 161.823 623.507 161.323 633.607 160.823C638.307 160.623 642.907 160.423 647.407 159.923C649.807 159.223 652.007 158.423 654.007 157.723C673.107 150.723 683.407 135.723 694.307 119.723C701.707 108.923 709.307 97.7229 720.107 88.5229C722.107 86.8229 724.207 85.1229 726.407 83.4229C730.407 79.1229 734.907 75.1229 740.107 71.9229C753.707 63.2229 770.607 55.7229 788.707 50.2229C790.507 49.6229 792.307 49.1229 794.207 48.6229C804.807 45.0229 815.707 42.0229 826.607 39.7229C848.607 35.1229 869.207 33.7229 887.907 35.6229C908.607 37.7229 926.107 43.8229 940.007 53.6229C960.907 68.5229 973.207 86.9229 985.007 104.623C994.807 119.323 1004.11 133.223 1017.61 144.023C1032.81 156.223 1051.01 162.623 1075.11 164.323C1131.71 168.323 1187.31 144.223 1241.11 120.923C1267.41 109.523 1292.31 98.7229 1317.31 91.0229L1318.71 90.6229C1347.91 81.6229 1396.91 66.4229 1444.01 60.5229C1470.01 57.2229 1492.71 57.1229 1511.51 60.1229C1533.71 63.6229 1551.11 71.7229 1563.21 83.9229L1563.41 84.1229H1563.11C1474.81 75.5229 1386.11 84.1229 1299.61 109.623C1274.21 117.123 1248.41 128.823 1223.61 140.223C1200.31 150.823 1176.31 161.823 1152.11 169.623C1124.91 178.323 1100.61 181.923 1077.81 180.523C1018.01 176.823 999.807 149.623 976.707 115.223C967.807 101.823 958.507 88.0229 945.907 73.9229C912.007 35.9229 847.607 34.0229 794.007 49.0229C768.407 57.7229 744.507 70.0229 726.507 83.8229C718.007 93.0229 711.507 104.123 705.307 114.923C697.207 128.823 689.607 141.923 678.207 150.123C668.607 156.923 658.307 159.323 647.407 160.423C626.907 166.723 595.007 172.323 568.207 176.523C551.807 182.123 537.507 186.723 516.307 186.723ZM164.607 146.023C164.907 146.023 165.307 146.023 165.607 146.023L167.607 146.123C243.007 149.823 321.007 153.623 395.407 166.523C408.007 168.723 420.807 171.423 433.207 174.123C455.807 178.923 479.207 184.023 502.407 185.923C531.107 188.323 547.707 183.323 567.007 176.423C556.807 178.023 547.407 179.423 539.707 180.523L537.507 180.823C492.707 187.423 477.807 168.223 460.707 145.923C449.707 131.623 437.207 115.523 414.807 105.023C406.107 100.923 397.107 98.4229 387.407 97.4229C378.707 96.5229 369.607 96.7229 359.607 98.2229C341.007 100.923 321.907 107.423 303.507 113.723C282.407 120.923 260.607 128.323 239.607 129.923C225.507 131.023 212.307 131.323 199.607 131.623C170.907 132.323 143.807 132.923 112.507 142.323L111.107 142.723C88.9071 149.323 69.8071 155.123 52.4071 153.623C43.2071 152.823 35.0071 150.123 27.1071 145.323C18.7071 140.123 10.7071 132.523 2.60706 122.023C0.307063 131.523 -0.392937 139.723 0.607063 146.423C1.60706 152.723 4.10706 157.923 8.10706 161.723C28.3071 181.423 83.2071 166.323 123.207 155.223C141.107 150.323 156.507 146.023 164.607 146.023ZM855.407 39.8229C872.207 39.8229 887.807 42.0229 901.707 46.3229C920.007 51.9229 934.907 61.1229 946.007 73.6229C958.707 87.8229 967.907 101.623 976.807 115.023C999.807 149.423 1018.01 176.623 1077.71 180.323C1100.51 181.723 1124.81 178.223 1152.01 169.423C1176.21 161.623 1200.21 150.723 1223.51 140.023C1248.41 128.623 1274.11 116.923 1299.61 109.423C1386.01 83.9229 1474.61 75.3229 1562.91 83.9229C1550.81 71.8229 1533.51 63.8229 1511.51 60.3229C1492.71 57.3229 1470.01 57.5229 1444.11 60.7229C1397.01 66.7229 1348.11 81.8229 1318.91 90.8229L1317.51 91.2229C1292.51 98.9229 1267.61 109.723 1241.31 121.123C1191.51 142.723 1140.11 164.923 1087.81 164.923C1083.61 164.923 1079.41 164.823 1075.11 164.523C1051.01 162.823 1032.71 156.323 1017.51 144.123C1004.01 133.323 994.707 119.323 984.807 104.623C972.907 86.9229 960.707 68.5229 939.807 53.6229C926.007 43.7229 908.507 37.7229 887.807 35.6229C869.107 33.7229 848.507 35.1229 826.607 39.7229C816.907 41.7229 807.107 44.4229 797.607 47.5229C813.707 43.3229 830.207 40.7229 846.007 39.9229C849.107 39.9229 852.207 39.8229 855.407 39.8229ZM646.307 160.223C642.107 160.623 637.807 160.823 633.407 161.023C623.307 161.523 612.907 162.023 602.607 164.823C590.807 168.023 581.307 171.423 572.107 174.823C571.107 175.223 570.107 175.523 569.107 175.923C595.307 171.723 626.007 166.323 646.307 160.223ZM725.507 84.2229C723.607 85.7229 721.807 87.1229 720.107 88.6229C709.307 97.9229 701.707 109.023 694.307 119.823C683.407 135.823 673.207 150.823 653.907 157.823C652.107 158.423 650.207 159.123 648.207 159.723C658.707 158.623 668.607 156.223 677.907 149.623C689.307 141.423 696.907 128.323 705.007 114.423C711.107 104.023 717.307 93.3229 725.507 84.2229ZM790.507 49.8229C771.607 55.4229 754.207 63.1229 740.107 72.0229C735.307 75.1229 731.107 78.7229 727.307 82.6229C744.307 69.8229 766.607 58.3229 790.507 49.8229Z" fill="#E21A43" fill-opacity="0.5"/>
<path d="M516.307 221.523C512.007 221.523 507.407 221.323 502.507 220.923C479.307 219.023 455.907 214.023 433.207 209.123C420.807 206.423 408.007 203.723 395.407 201.523C321.007 188.623 243.007 184.823 167.607 181.123L165.607 181.023C157.807 180.623 141.807 185.023 123.307 190.123C83.2071 201.223 28.3071 216.423 8.00706 196.523C4.00706 192.623 1.40706 187.423 0.507056 181.023C-0.592944 174.223 0.107056 165.923 2.50706 156.323L2.60706 156.123L2.70706 156.323C10.7071 166.923 18.8071 174.523 27.2071 179.723C35.0071 184.523 43.2071 187.223 52.4071 188.023C69.8071 189.523 88.9071 183.723 111.007 177.123L112.407 176.723C143.807 167.323 170.907 166.723 199.607 166.023C212.307 165.723 225.507 165.423 239.607 164.323C260.607 162.723 282.407 155.323 303.407 148.123C321.907 141.823 340.907 135.323 359.607 132.623C369.707 131.223 378.807 130.923 387.507 131.823C397.307 132.923 406.307 135.423 415.007 139.523C437.407 150.023 449.907 166.223 461.007 180.523C478.107 202.723 492.907 221.823 537.707 215.323L539.907 215.023C547.907 213.823 557.707 212.423 568.207 210.723C569.507 210.223 570.807 209.823 572.207 209.323C581.407 206.023 590.907 202.523 602.707 199.323C613.107 196.523 623.507 196.023 633.607 195.523C638.307 195.323 642.907 195.123 647.407 194.623C649.807 193.923 652.007 193.123 654.007 192.423C673.107 185.423 683.407 170.423 694.307 154.423C701.707 143.623 709.307 132.423 720.107 123.223C722.107 121.523 724.207 119.823 726.407 118.123C730.407 113.823 734.907 109.823 740.107 106.623C753.707 97.9229 770.607 90.4229 788.707 84.9229C790.507 84.3229 792.307 83.8229 794.207 83.3229C804.807 79.7229 815.707 76.7229 826.607 74.4229C848.607 69.8229 869.207 68.4229 887.907 70.3229C908.607 72.4229 926.107 78.5229 940.007 88.3229C960.907 103.223 973.207 121.623 985.007 139.323C994.807 154.023 1004.11 167.923 1017.61 178.723C1032.81 190.923 1051.01 197.323 1075.11 199.023C1131.71 203.023 1187.31 178.923 1241.11 155.623C1267.41 144.223 1292.31 133.423 1317.31 125.723L1318.71 125.323C1347.91 116.323 1396.91 101.123 1444.01 95.2229C1470.01 91.9229 1492.71 91.8229 1511.51 94.8229C1533.71 98.3229 1551.11 106.423 1563.21 118.623L1563.41 118.823H1563.11C1474.81 110.223 1386.11 118.823 1299.61 144.323C1274.21 151.823 1248.41 163.523 1223.61 174.923C1200.31 185.523 1176.31 196.523 1152.11 204.323C1124.91 213.023 1100.61 216.623 1077.81 215.223C1018.01 211.523 999.807 184.323 976.707 149.923C967.807 136.523 958.507 122.723 945.907 108.623C912.007 70.6229 847.607 68.7229 794.007 83.7229C768.407 92.4229 744.507 104.723 726.507 118.523C718.007 127.723 711.507 138.823 705.307 149.623C697.207 163.523 689.607 176.623 678.207 184.823C668.607 191.623 658.307 194.023 647.407 195.123C626.907 201.423 595.007 207.023 568.207 211.223C551.807 216.823 537.507 221.523 516.307 221.523ZM164.607 180.823C164.907 180.823 165.307 180.823 165.607 180.823L167.607 180.923C243.007 184.623 321.007 188.423 395.407 201.323C408.007 203.523 420.807 206.223 433.207 208.923C455.807 213.723 479.207 218.823 502.407 220.723C531.107 223.123 547.707 218.123 567.007 211.223C556.807 212.823 547.407 214.223 539.707 215.323L537.507 215.623C492.707 222.223 477.807 203.023 460.707 180.723C449.707 166.423 437.207 150.323 414.807 139.823C406.107 135.723 397.107 133.223 387.407 132.223C378.707 131.323 369.607 131.523 359.607 133.023C341.007 135.723 321.907 142.223 303.507 148.523C282.407 155.723 260.607 163.123 239.607 164.723C225.507 165.823 212.307 166.123 199.607 166.423C170.907 167.123 143.807 167.723 112.507 177.123L111.107 177.523C88.9071 184.123 69.8071 189.923 52.4071 188.423C43.2071 187.623 35.0071 184.923 27.1071 180.123C18.7071 174.923 10.7071 167.323 2.60706 156.823C0.307063 166.323 -0.392937 174.523 0.607063 181.223C1.60706 187.523 4.10706 192.723 8.10706 196.523C28.3071 216.223 83.2071 201.123 123.207 190.023C141.107 185.023 156.507 180.823 164.607 180.823ZM855.407 74.5229C872.207 74.5229 887.807 76.7229 901.707 81.0229C920.007 86.6229 934.907 95.8229 946.007 108.323C958.707 122.523 967.907 136.323 976.807 149.723C999.807 184.123 1018.01 211.323 1077.71 215.023C1100.51 216.423 1124.81 212.923 1152.01 204.123C1176.21 196.323 1200.21 185.423 1223.51 174.723C1248.41 163.323 1274.11 151.623 1299.61 144.123C1386.01 118.623 1474.61 110.023 1562.91 118.623C1550.81 106.523 1533.51 98.5229 1511.51 95.0229C1492.71 92.0229 1470.01 92.2229 1444.11 95.4229C1397.01 101.423 1348.11 116.523 1318.91 125.523L1317.51 125.923C1292.51 133.623 1267.61 144.423 1241.31 155.823C1191.51 177.423 1140.11 199.623 1087.81 199.623C1083.61 199.623 1079.41 199.523 1075.11 199.223C1051.01 197.523 1032.71 191.023 1017.51 178.823C1004.01 168.023 994.707 154.023 984.807 139.323C972.907 121.623 960.707 103.223 939.807 88.3229C926.007 78.4229 908.507 72.4229 887.807 70.3229C869.107 68.4229 848.507 69.8229 826.607 74.4229C816.907 76.4229 807.107 79.1229 797.607 82.2229C813.707 78.0229 830.207 75.4229 846.007 74.6229C849.107 74.6229 852.207 74.5229 855.407 74.5229ZM646.307 195.023C642.107 195.423 637.807 195.623 633.407 195.823C623.307 196.323 612.907 196.823 602.607 199.623C590.807 202.823 581.307 206.223 572.107 209.623C571.107 210.023 570.107 210.323 569.107 210.723C595.307 206.523 626.007 201.123 646.307 195.023ZM725.507 119.023C723.607 120.523 721.807 121.923 720.107 123.423C709.307 132.723 701.707 143.823 694.307 154.623C683.407 170.623 673.207 185.623 653.907 192.623C652.107 193.223 650.207 193.923 648.207 194.523C658.707 193.423 668.607 191.023 677.907 184.423C689.307 176.223 696.907 163.123 705.007 149.223C711.107 138.823 717.307 128.023 725.507 119.023ZM790.507 84.5229C771.607 90.1229 754.207 97.8229 740.107 106.723C735.307 109.823 731.107 113.423 727.307 117.323C744.307 104.523 766.607 93.0229 790.507 84.5229Z" fill="#E21A43" fill-opacity="0.5"/>
<path d="M516.307 256.223C512.007 256.223 507.407 256.023 502.507 255.623C479.307 253.723 455.907 248.723 433.207 243.823C420.807 241.123 408.007 238.423 395.407 236.223C321.007 223.323 243.007 219.523 167.607 215.823L165.607 215.723C157.807 215.323 141.807 219.723 123.307 224.823C83.2071 235.923 28.3071 251.023 8.00706 231.223C4.00706 227.323 1.40706 222.123 0.507056 215.723C-0.592944 208.923 0.107056 200.623 2.50706 191.023L2.60706 190.823L2.70706 191.023C10.7071 201.623 18.8071 209.223 27.2071 214.423C35.0071 219.223 43.2071 221.923 52.4071 222.723C69.8071 224.223 88.9071 218.423 111.007 211.823L112.407 211.423C143.807 202.023 170.907 201.423 199.607 200.723C212.307 200.423 225.507 200.123 239.607 199.023C260.607 197.423 282.407 190.023 303.407 182.823C321.907 176.523 340.907 170.023 359.607 167.323C369.707 165.923 378.807 165.623 387.507 166.523C397.307 167.623 406.307 170.123 415.007 174.223C437.407 184.723 449.907 200.923 461.007 215.223C478.107 237.423 492.907 256.523 537.707 250.023L539.907 249.723C547.907 248.523 557.707 247.123 568.207 245.423C569.507 244.923 570.807 244.523 572.207 244.023C581.407 240.723 590.907 237.223 602.707 234.023C613.107 231.223 623.507 230.723 633.607 230.223C638.307 230.023 642.907 229.823 647.407 229.323C649.807 228.623 652.007 227.823 654.007 227.123C673.107 220.123 683.407 205.123 694.307 189.123C701.707 178.323 709.307 167.123 720.107 157.923C722.107 156.223 724.207 154.523 726.407 152.823C730.407 148.523 734.907 144.523 740.107 141.323C753.707 132.623 770.607 125.123 788.707 119.623C790.507 119.023 792.307 118.523 794.207 118.023C804.807 114.423 815.707 111.423 826.607 109.123C848.607 104.523 869.207 103.123 887.907 105.023C908.607 107.123 926.107 113.223 940.007 123.023C960.907 137.923 973.207 156.323 985.007 174.023C994.807 188.723 1004.11 202.623 1017.61 213.423C1032.81 225.623 1051.01 232.023 1075.11 233.723C1131.71 237.723 1187.31 213.623 1241.11 190.323C1267.41 178.923 1292.31 168.123 1317.31 160.423L1318.71 160.023C1347.91 151.023 1396.91 135.823 1444.01 129.923C1470.01 126.623 1492.71 126.523 1511.51 129.523C1533.71 133.023 1551.11 141.123 1563.21 153.323L1563.41 153.523H1563.11C1474.81 144.923 1386.11 153.523 1299.61 179.023C1274.21 186.523 1248.41 198.223 1223.61 209.623C1200.31 220.223 1176.31 231.223 1152.11 239.023C1124.91 247.723 1100.61 251.323 1077.81 249.923C1018.01 246.223 999.807 219.023 976.707 184.623C967.807 171.223 958.507 157.423 945.907 143.323C912.007 105.323 847.607 103.423 794.007 118.423C768.407 127.123 744.507 139.423 726.507 153.223C718.007 162.423 711.507 173.523 705.307 184.323C697.207 198.223 689.607 211.323 678.207 219.523C668.607 226.323 658.307 228.723 647.407 229.823C626.907 236.123 595.007 241.723 568.207 245.923C551.807 251.623 537.507 256.223 516.307 256.223ZM164.607 215.523C164.907 215.523 165.307 215.523 165.607 215.523L167.607 215.623C243.007 219.323 321.007 223.123 395.407 236.023C408.007 238.223 420.807 240.923 433.207 243.623C455.807 248.423 479.207 253.523 502.407 255.423C531.107 257.823 547.707 252.823 567.007 245.923C556.807 247.523 547.407 248.923 539.707 250.023L537.507 250.323C492.707 256.923 477.807 237.723 460.707 215.423C449.707 201.123 437.207 185.023 414.807 174.523C406.107 170.423 397.107 167.923 387.407 166.923C378.707 166.023 369.607 166.223 359.607 167.723C341.007 170.423 321.907 176.923 303.507 183.223C282.407 190.423 260.607 197.823 239.607 199.423C225.507 200.523 212.307 200.823 199.607 201.123C170.907 201.823 143.807 202.423 112.507 211.823L111.107 212.223C88.9071 218.823 69.8071 224.623 52.4071 223.123C43.2071 222.323 35.0071 219.623 27.1071 214.823C18.7071 209.623 10.7071 202.023 2.60706 191.523C0.307063 201.023 -0.392937 209.223 0.607063 215.923C1.60706 222.223 4.10706 227.423 8.10706 231.223C28.3071 250.923 83.2071 235.823 123.207 224.723C141.107 219.823 156.507 215.523 164.607 215.523ZM855.407 109.323C872.207 109.323 887.807 111.523 901.707 115.823C920.007 121.423 934.907 130.623 946.007 143.123C958.707 157.323 967.907 171.123 976.807 184.523C999.807 218.923 1018.01 246.123 1077.71 249.823C1100.51 251.223 1124.81 247.723 1152.01 238.923C1176.21 231.123 1200.21 220.223 1223.51 209.523C1248.41 198.123 1274.11 186.423 1299.61 178.923C1386.01 153.423 1474.61 144.823 1562.91 153.423C1550.81 141.323 1533.51 133.323 1511.51 129.823C1492.71 126.823 1470.01 127.023 1444.11 130.223C1397.01 136.223 1348.11 151.323 1318.91 160.323L1317.51 160.723C1292.51 168.423 1267.61 179.223 1241.31 190.623C1191.51 212.223 1140.11 234.423 1087.81 234.423C1083.61 234.423 1079.41 234.323 1075.11 234.023C1051.01 232.323 1032.71 225.823 1017.51 213.623C1004.01 202.823 994.707 188.823 984.807 174.123C972.907 156.423 960.707 138.023 939.807 123.123C926.007 113.223 908.507 107.223 887.807 105.123C869.107 103.223 848.507 104.623 826.607 109.223C816.907 111.223 807.107 113.923 797.607 117.023C813.707 112.823 830.207 110.223 846.007 109.423C849.107 109.423 852.207 109.323 855.407 109.323ZM646.307 229.723C642.107 230.123 637.807 230.323 633.407 230.523C623.307 231.023 612.907 231.523 602.607 234.323C590.807 237.523 581.307 240.923 572.107 244.323C571.107 244.723 570.107 245.023 569.107 245.423C595.307 241.223 626.007 235.823 646.307 229.723ZM725.507 153.723C723.607 155.223 721.807 156.623 720.107 158.123C709.307 167.423 701.707 178.623 694.307 189.423C683.407 205.423 673.207 220.423 653.907 227.423C652.107 228.023 650.207 228.723 648.207 229.323C658.707 228.223 668.607 225.823 677.907 219.223C689.307 211.023 696.907 197.923 705.007 184.023C711.107 173.523 717.307 162.823 725.507 153.723ZM790.507 119.323C771.607 124.923 754.207 132.623 740.107 141.523C735.307 144.623 731.107 148.223 727.307 152.123C744.307 139.323 766.607 127.723 790.507 119.323Z" fill="#E21A43" fill-opacity="0.5"/>
</svg>
