<svg width="91" height="71" viewBox="0 0 91 71" fill="none" xmlns="http://www.w3.org/2000/svg">
<path d="M45.4395 0.0883789C44.7949 0.215332 43.9258 0.557129 43.3594 0.88916C42.666 1.29932 41.6211 2.34424 41.2109 3.04736C39.7949 5.41064 40.1172 8.43799 41.9824 10.479C42.5586 11.104 42.5781 11.1333 42.3535 11.1919C42.2266 11.231 41.7676 11.4263 41.3379 11.6411C39.8633 12.3735 38.457 14.0728 37.6172 16.1528C37.4219 16.6313 37.2461 17.0415 37.2363 17.061C37.2168 17.0806 37.0508 16.9829 36.8457 16.8462C36.6406 16.7095 36.3184 16.5532 36.123 16.4946C35.5469 16.3384 26.875 16.3774 26.416 16.5337C25.2441 16.9536 24.6484 17.9302 25.2246 18.4966C25.5371 18.8188 25.9668 18.8188 26.2598 18.4966C26.6602 18.0669 26.9629 17.9595 27.8125 17.9595H28.5938V19.2778C28.5938 20.5571 28.6035 20.6157 28.8379 20.8403L29.0723 21.0845H31.3281H33.584L33.8184 20.8403C34.0527 20.6157 34.0625 20.5571 34.0625 19.2681V17.9399L34.9902 17.979C35.791 18.0083 35.9375 18.0376 36.1328 18.2329L36.3574 18.4575V21.8657V25.2739L36.1328 25.4985L35.9082 25.7231L31.3672 25.7524L26.8262 25.7817L26.543 25.4888C26.377 25.3325 26.25 25.1567 26.25 25.0981C26.25 25.0298 26.582 24.9907 27.1777 24.9907C28.0371 24.9907 28.1348 24.9712 28.3496 24.7466C28.5059 24.6001 28.5938 24.395 28.5938 24.2095C28.5938 24.0239 28.5059 23.8188 28.3496 23.6724C28.1348 23.4478 28.0371 23.4282 27.1777 23.4282H26.25V22.647V21.8657H26.7871C27.4414 21.8657 27.8125 21.5825 27.8125 21.0845C27.8125 20.8989 27.7246 20.6938 27.5684 20.5474L27.334 20.3032H25.0781H22.8223L22.5879 20.5474C22.2656 20.8599 22.2656 21.3091 22.5879 21.6216C22.8027 21.8462 22.9004 21.8657 23.7598 21.8657H24.6875V22.647V23.4282H22.9785C21.2891 23.4282 21.2598 23.4282 21.0254 23.6724C20.7031 23.9849 20.7031 24.4341 21.0254 24.7466C21.2598 24.9907 21.2891 24.9907 22.9492 24.9907H24.6484L24.7656 25.4302C24.9902 26.2896 25.5957 26.9341 26.4355 27.2173C26.6504 27.2954 27.5293 27.3345 28.9063 27.3345H31.0547L30.6934 27.7544C29.6875 28.9165 28.7695 31.8364 28.6328 34.2876C28.5645 35.4106 28.5645 35.4204 28.8184 35.6743C29.0723 35.9185 29.1016 35.9282 30.4199 35.9282H31.7676L31.9238 36.6021C32.4609 38.8091 34.2188 40.5767 36.4551 41.1528C37.207 41.3481 38.7305 41.3481 39.4824 41.1528C41.709 40.5767 43.4766 38.8091 44.0039 36.6216L44.1699 35.9282H50.0781H55.9961L56.1231 36.5337C56.6895 39.2778 59.3262 41.397 62.1875 41.397C65.5957 41.397 68.4375 38.5552 68.4375 35.147C68.4375 32.8325 67.0606 30.606 65.0195 29.5903C64.1504 29.1704 63.1348 28.897 62.3731 28.897H61.9238L60.5371 25.6646C59.7754 23.8774 59.1699 22.4126 59.1797 22.3931C59.1992 22.3833 59.4531 22.4321 59.7461 22.5103C60.5274 22.7153 60.8887 22.686 61.1621 22.4028L61.4063 22.1685V18.7407V15.313L61.1524 15.0591C60.918 14.8247 60.8594 14.8149 60.2637 14.8638C58.9941 14.981 57.6758 15.8892 57.168 16.9829L56.9434 17.4614L56.6602 17.1685C56.5039 17.0024 56.1621 16.7485 55.8887 16.6118C55.4102 16.3579 55.3613 16.3481 53.8574 16.3774C52.041 16.4067 51.6406 16.2896 50.9277 15.5278C50.5078 15.0786 49.5898 13.8384 49.5898 13.7212C49.5898 13.6919 49.6875 13.6626 49.8145 13.6626C49.9414 13.6626 50.2832 13.5454 50.5762 13.3892C51.1719 13.0864 51.6699 12.5005 51.8555 11.8755C51.9238 11.6313 52.0996 11.3579 52.2949 11.1919C53.0664 10.5278 53.1836 9.70752 52.627 8.82861C52.4609 8.56494 52.2754 8.19385 52.2266 7.99854C52.0996 7.54932 52.0996 7.02197 52.2266 7.02197C52.2852 7.02197 52.4414 6.91455 52.5684 6.77783C52.8613 6.49463 52.8906 5.97705 52.666 4.92236C52.0703 2.09033 49.4238 -0.0385742 46.5137 0.000488281C46.1426 0.0102539 45.6543 0.0493164 45.4395 0.0883789ZM47.6856 1.69971C48.5352 1.92432 49.3262 2.3833 49.9316 3.02783C50.4688 3.58447 50.9863 4.52197 51.1133 5.13721L51.1719 5.43994L49.6777 5.479C48.3984 5.5083 48.1055 5.5376 47.7148 5.72314C47.0703 6.01611 46.416 6.66064 46.1035 7.30518C45.8496 7.81299 45.8301 7.94971 45.8008 9.35596L45.7617 10.8501L45.459 10.7915C44.8438 10.6646 43.9063 10.147 43.3496 9.60986C42.7051 9.00439 42.2461 8.21338 42.0215 7.36377C41.1621 4.05322 44.375 0.840332 47.6856 1.69971ZM50.5469 7.74463C50.6152 8.14502 50.8203 8.77979 51.0156 9.18018L51.3672 9.90283L51.1328 10.0493C50.7129 10.3228 50.4688 10.6255 50.4688 10.8794C50.4688 11.27 50.2148 11.7778 49.9414 11.9536C49.6484 12.1489 48.7012 12.1099 47.8809 11.8755L47.3926 11.7388L47.3633 10.0298C47.3438 8.40869 47.3535 8.31104 47.5684 7.90088C47.9102 7.24658 48.4082 7.02197 49.541 7.02197H50.4297L50.5469 7.74463ZM45.293 12.5884C46.582 12.8325 47.3828 13.4478 48.6914 15.2153C49.6777 16.5532 50.3027 17.1587 51.0449 17.5298C51.3477 17.6763 51.6016 17.813 51.6211 17.8228C51.6406 17.8325 51.5625 18.0181 51.4551 18.2427C51.3379 18.4575 51.1914 18.9751 51.1328 19.3853C51.0156 20.1079 51.0156 20.1274 50.7617 20.0786C49.3066 19.7856 47.627 18.5552 46.6211 17.0415C46.1035 16.2603 45.7422 16.1138 45.2539 16.5044C44.7852 16.8755 44.9121 17.3735 45.7617 18.4966L46.0547 18.8774L45.7813 19.229C45.3711 19.7563 44.8926 20.645 44.707 21.2603L44.5313 21.8169L41.2402 21.8462L37.9395 21.8657L37.9981 21.0649C38.0859 19.9712 38.457 18.4087 38.9258 17.1587C40.2441 13.6724 42.4902 12.061 45.293 12.5884ZM59.8438 18.7407C59.8438 21.2212 59.8535 21.2017 59.0332 20.3716C58.5059 19.854 58.2813 19.356 58.2813 18.7407C58.2813 18.1255 58.5059 17.6274 59.0332 17.1001C59.8535 16.2798 59.8438 16.2603 59.8438 18.7407ZM55.4102 18.1255C55.5859 18.2524 55.8106 18.5747 55.9668 18.936L56.2207 19.5317L55.7813 19.7173C55.0488 20.0396 54.1699 20.2251 53.3984 20.2446L52.666 20.2544L52.6367 19.9712C52.5586 19.2681 53.0664 18.3501 53.7402 18.0083C54.1504 17.7935 55.0293 17.8521 55.4102 18.1255ZM32.5 18.7407V19.522H31.3281H30.1563V18.7407V17.9595H31.3281H32.5V18.7407ZM47.9688 20.5376C48.75 21.0454 49.4727 21.3579 50.5176 21.6216L51.3965 21.8462L52.4902 26.563C53.1543 29.4438 53.584 31.5044 53.584 31.8364C53.5938 32.5005 53.3789 33.145 53.0371 33.5063L52.7832 33.77L52.6172 33.3013C52.334 32.4614 51.6504 31.7485 50.8887 31.4849L50.5176 31.3579L50.459 28.6333C50.4102 25.7329 50.4102 25.7329 49.834 24.5903C49.2676 23.4868 47.7637 22.3149 46.6309 22.1099C46.4258 22.0708 46.2305 21.9731 46.2012 21.9048C46.084 21.5923 47.0606 19.9419 47.2852 20.0884C47.3438 20.1274 47.6465 20.3228 47.9688 20.5376ZM58.7012 25.3521L60.5078 29.5806L58.8086 31.9731L57.1094 34.3657H55.7617H54.4141L54.7363 33.7017C55.127 32.9106 55.2832 31.9829 55.166 31.2407C55.0879 30.7817 53.1836 22.5103 53.0469 22.0513C53.0078 21.9243 53.1348 21.8853 53.7793 21.8267C54.5606 21.7681 56.0254 21.397 56.5137 21.1333C56.6504 21.0649 56.7969 21.0356 56.8262 21.0649C56.8652 21.104 57.7051 23.0376 58.7012 25.3521ZM45.7813 23.5259C46.9336 23.7407 48.0176 24.4927 48.4668 25.3813C48.8281 26.104 48.9063 26.729 48.9063 29.0435V31.2407H47.3438H45.7813V30.1177C45.7813 28.3696 45.3223 27.2954 44.2383 26.5142C43.3496 25.8599 42.8613 25.772 40.166 25.772H37.7832L37.8809 25.4595C37.9297 25.2837 37.9688 24.7563 37.9688 24.2876V23.4282H41.6211C43.6621 23.4282 45.4981 23.4673 45.7813 23.5259ZM42.666 27.4517C43.1543 27.5981 43.75 28.106 43.9844 28.5747C44.1406 28.8872 44.1797 29.2583 44.2188 30.9575L44.2676 32.9595L44.6191 33.6626L44.9609 34.3657H37.5488H30.1367L30.2051 33.7505C30.3711 32.1489 31.1328 29.8442 31.8164 28.8481C32.2754 28.1841 33.0762 27.6372 33.916 27.4321C34.4238 27.3052 42.2461 27.3149 42.666 27.4517ZM63.3106 30.606C65.8106 31.2603 67.3633 33.8188 66.7285 36.27C66.2598 38.0669 64.7559 39.4536 62.9199 39.7661C60.9961 40.0981 58.8965 39.0239 58.0371 37.2563C57.8516 36.8755 57.666 36.4165 57.6367 36.2407L57.5781 35.9282H58.3594H59.1504L59.3848 36.4458C59.6875 37.1196 60.2246 37.647 60.9082 37.9692C61.6602 38.3208 62.7832 38.3208 63.5059 37.979C64.1211 37.6763 64.7168 37.0903 65.0293 36.4653C65.3516 35.8013 65.3613 34.5415 65.0488 33.8579C64.7852 33.272 64.1211 32.6177 63.5254 32.3247C62.5977 31.8755 61.2891 31.9731 60.4883 32.5396C60.3125 32.6567 60.2344 32.686 60.2832 32.5981C60.4102 32.3833 61.5137 30.8208 61.6797 30.6255C61.8652 30.4106 62.5195 30.4009 63.3106 30.606ZM50.4688 32.979C50.8496 33.1841 51.3184 33.9458 51.2207 34.1997C51.1621 34.3462 50.957 34.3657 49.4824 34.3657C47.5977 34.3657 47.2266 34.2974 46.6602 33.7993C46.3184 33.5161 45.9766 33.0376 45.9766 32.8521C45.9766 32.8228 46.9141 32.8032 48.0566 32.8032C49.8828 32.8032 50.1758 32.8228 50.4688 32.979ZM63.0469 33.8481C63.5449 34.2192 63.7012 34.5317 63.7012 35.147C63.7012 35.7622 63.5449 36.0747 63.0274 36.4556C62.6074 36.7778 61.7383 36.7388 61.2793 36.3872C61.084 36.2407 60.918 36.0747 60.918 36.0161C60.918 35.9673 61.2695 35.9282 61.6992 35.9282C62.4121 35.9282 62.5098 35.8989 62.7246 35.6841C63.0469 35.3716 63.0469 34.9224 62.7246 34.6099C62.5098 34.395 62.4121 34.3657 61.6992 34.3657C61.2695 34.3657 60.918 34.3267 60.918 34.2876C60.918 34.1704 61.2012 33.9263 61.5527 33.731C61.9336 33.5259 62.6953 33.5845 63.0469 33.8481ZM59.1699 34.2974C59.0723 34.3853 59.0625 34.3755 59.1211 34.2388C59.1504 34.1411 59.209 34.0923 59.2383 34.1216C59.2676 34.1509 59.2383 34.229 59.1699 34.2974ZM35.1465 36.4165C35.5859 37.4517 36.7969 38.2134 37.9688 38.2134C39.1406 38.2134 40.3516 37.4517 40.791 36.4165L41.0059 35.9282H41.7969H42.5879L42.5195 36.2407C42.3926 36.8755 41.875 37.7935 41.3184 38.3794C39.502 40.2837 36.4355 40.2837 34.6191 38.3794C34.0625 37.7935 33.5449 36.8755 33.418 36.2407L33.3594 35.9282H34.1406H34.9316L35.1465 36.4165ZM39.2383 36.0161C39.2383 36.1724 38.7402 36.5044 38.3496 36.6313C38.0566 36.7095 37.8809 36.7095 37.5879 36.6313C37.1973 36.5044 36.6992 36.1724 36.6992 36.0161C36.6992 35.9673 37.2559 35.9282 37.9688 35.9282C38.6816 35.9282 39.2383 35.9673 39.2383 36.0161Z" fill="#E21A43"/>
<path d="M1.62887 62.8657H3.54887V58.6357H7.02887V56.9257H3.54887V54.2407H7.94387V52.5307H1.62887V62.8657ZM10.7625 60.3907C10.7625 58.5307 11.2725 57.4207 12.5175 57.4207C12.6975 57.4207 13.1475 57.4207 13.5825 57.6157L13.8975 55.9657C13.6125 55.8007 13.2375 55.7107 12.7425 55.7107C11.9475 55.7107 11.1225 56.2357 10.7625 57.5107V55.8607H8.93246V62.8657H10.7625V60.3907ZM21.703 59.3407C21.703 57.1207 20.128 55.7107 18.148 55.7107C16.153 55.7107 14.518 57.1207 14.518 59.3407C14.518 61.5457 16.153 63.0157 18.148 63.0157C19.438 63.0157 20.773 62.5207 21.418 61.3207C20.953 61.0807 20.458 60.8107 20.023 60.5707C19.678 61.1707 18.973 61.4707 18.268 61.4707C17.233 61.4707 16.453 60.9157 16.333 59.9707H21.673C21.688 59.8057 21.703 59.5207 21.703 59.3407ZM16.318 58.7257C16.453 57.7657 17.203 57.2407 18.163 57.2407C19.063 57.2407 19.783 57.7657 19.918 58.7257H16.318ZM29.994 59.3407C29.994 57.1207 28.419 55.7107 26.439 55.7107C24.444 55.7107 22.809 57.1207 22.809 59.3407C22.809 61.5457 24.444 63.0157 26.439 63.0157C27.729 63.0157 29.064 62.5207 29.709 61.3207C29.244 61.0807 28.749 60.8107 28.314 60.5707C27.969 61.1707 27.264 61.4707 26.559 61.4707C25.524 61.4707 24.744 60.9157 24.624 59.9707H29.964C29.979 59.8057 29.994 59.5207 29.994 59.3407ZM24.609 58.7257C24.744 57.7657 25.494 57.2407 26.454 57.2407C27.354 57.2407 28.074 57.7657 28.209 58.7257H24.609ZM37.4307 54.2857H39.5457C41.3757 54.2857 42.2907 55.8457 42.2907 57.7207C42.2907 59.5807 41.3757 61.1107 39.5457 61.1107H37.4307V54.2857ZM39.5457 62.8657C42.5007 62.8657 44.2107 60.6607 44.2107 57.7207C44.2107 54.7807 42.5007 52.5307 39.5457 52.5307H35.5107V62.8657H39.5457ZM52.6405 59.3407C52.6405 57.1207 51.0655 55.7107 49.0855 55.7107C47.0905 55.7107 45.4555 57.1207 45.4555 59.3407C45.4555 61.5457 47.0905 63.0157 49.0855 63.0157C50.3755 63.0157 51.7105 62.5207 52.3555 61.3207C51.8905 61.0807 51.3955 60.8107 50.9605 60.5707C50.6155 61.1707 49.9105 61.4707 49.2055 61.4707C48.1705 61.4707 47.3905 60.9157 47.2705 59.9707H52.6105C52.6255 59.8057 52.6405 59.5207 52.6405 59.3407ZM47.2555 58.7257C47.3905 57.7657 48.1405 57.2407 49.1005 57.2407C50.0005 57.2407 50.7205 57.7657 50.8555 58.7257H47.2555ZM54.1815 62.8657H56.0115V52.0507H54.1815V62.8657ZM59.893 55.8607H58.078V62.8657H59.893V55.8607ZM57.808 53.1457C57.808 53.7907 58.348 54.2557 58.993 54.2557C59.638 54.2557 60.148 53.7907 60.148 53.1457C60.148 52.5307 59.638 52.0507 58.993 52.0507C58.348 52.0507 57.808 52.5307 57.808 53.1457ZM63.9998 62.8657H65.6198L68.5748 55.8607H66.6098L64.8098 60.5257L63.0098 55.8607H61.0598L63.9998 62.8657ZM76.327 59.3407C76.327 57.1207 74.752 55.7107 72.772 55.7107C70.777 55.7107 69.142 57.1207 69.142 59.3407C69.142 61.5457 70.777 63.0157 72.772 63.0157C74.062 63.0157 75.397 62.5207 76.042 61.3207C75.577 61.0807 75.082 60.8107 74.647 60.5707C74.302 61.1707 73.597 61.4707 72.892 61.4707C71.857 61.4707 71.077 60.9157 70.957 59.9707H76.297C76.312 59.8057 76.327 59.5207 76.327 59.3407ZM70.942 58.7257C71.077 57.7657 71.827 57.2407 72.787 57.2407C73.687 57.2407 74.407 57.7657 74.542 58.7257H70.942ZM79.698 60.3907C79.698 58.5307 80.208 57.4207 81.453 57.4207C81.633 57.4207 82.083 57.4207 82.518 57.6157L82.833 55.9657C82.548 55.8007 82.173 55.7107 81.678 55.7107C80.883 55.7107 80.058 56.2357 79.698 57.5107V55.8607H77.868V62.8657H79.698V60.3907ZM90.53 55.8607H88.58L86.825 60.2257L85.085 55.8607H83.135L85.865 62.3257L84.26 66.2857H86.195L90.53 55.8607Z" fill="#E21A43"/>
</svg>
