<svg width="254" height="24" viewBox="0 0 254 24" fill="none" xmlns="http://www.w3.org/2000/svg">
<rect x="44.5" y="0.5" width="33" height="23" rx="3.5" fill="white" stroke="#D9D9D9"/>
<path fill-rule="evenodd" clip-rule="evenodd" d="M71.2933 13.9481H72.1319H72.1326C72.2203 13.9499 72.2932 13.8774 72.2965 13.7852V11.3417C72.2965 11.0348 72.3121 10.7577 72.4298 10.4805C72.5105 10.2697 72.7009 10.1277 72.9168 10.1172C73.4533 10.1172 73.4481 10.7352 73.4441 11.2206C73.4437 11.2616 73.4434 11.3016 73.4434 11.3402V13.8056C73.4538 13.8847 73.5165 13.9447 73.5923 13.9481H74.4384C74.5186 13.9499 74.5877 13.889 74.6 13.8056V10.9487C74.6 10.5095 74.6 9.89802 74.3803 9.53474C74.1427 9.14328 73.7748 9 73.398 9C72.817 9 72.4871 9.29595 72.2518 9.91681H72.2354V9.22235C72.2184 9.14975 72.1575 9.09791 72.0864 9.09552H71.3059C71.2235 9.09338 71.1532 9.15806 71.1443 9.24427V13.7852C71.1454 13.8723 71.2106 13.9436 71.2933 13.9481ZM70.5039 11.5664C70.5039 10.1337 69.8284 9.00626 68.5794 9.00626C67.3625 9.00626 66.687 10.1149 66.687 11.5187C66.687 12.9225 67.3543 14.0499 68.5794 14.0499C69.7591 14.0499 70.5039 12.9514 70.5039 11.5664ZM67.9277 11.3754C67.9277 10.8211 67.9672 9.93325 68.5876 9.93325C68.8542 9.93325 69.0426 10.0593 69.1372 10.3725C69.2474 10.735 69.2631 11.1938 69.2631 11.5758C69.2631 12.1583 69.2385 13.1135 68.5794 13.1135C67.9275 13.1135 67.9276 11.9554 67.9277 11.3938L67.9277 11.3754ZM52.191 13.9575H53.0319H53.0326C53.0748 13.9585 53.1157 13.9419 53.1461 13.9111C53.1766 13.8804 53.1942 13.8382 53.195 13.7938V11.3879L53.1949 11.3503C53.1946 10.8271 53.1941 10.1352 53.7759 10.1352C54.3137 10.1352 54.3053 10.7431 54.2986 11.2341V11.2341V11.2341V11.2341V11.2341C54.2979 11.287 54.2972 11.3386 54.2972 11.3879V13.7946C54.2986 13.8815 54.3636 13.9526 54.4462 13.9575H55.2892C55.3313 13.9583 55.372 13.9415 55.4023 13.9109C55.4326 13.8802 55.45 13.8381 55.4508 13.7938V11.3879L55.4508 11.3307V11.3307C55.4502 11.0758 55.4496 10.7318 55.5298 10.5181C55.6116 10.2996 55.8093 10.1534 56.0325 10.1462C56.276 10.1462 56.4644 10.2323 56.527 10.5377C56.5589 10.6846 56.5548 11.0253 56.5521 11.2512V11.2512L56.5521 11.2513C56.5514 11.3046 56.5508 11.3515 56.5508 11.3879V13.7946C56.5519 13.8817 56.6171 13.9529 56.6998 13.9575H57.5406C57.5828 13.9585 57.6237 13.9419 57.6542 13.9111C57.6846 13.8804 57.7022 13.8382 57.703 13.7938V10.9291C57.703 10.8593 57.7041 10.788 57.7053 10.7159V10.7159V10.7158V10.7158V10.7157C57.7122 10.288 57.7195 9.83268 57.4907 9.50576C57.2134 9.13493 56.7674 8.95015 56.324 9.02235C55.8806 9.09455 55.5086 9.41252 55.351 9.85416C55.1149 9.28028 54.7776 9.0133 54.2592 9.0133C53.7409 9.0133 53.3558 9.28028 53.1518 9.85416H53.1361V9.26149C53.1317 9.17701 53.0675 9.10956 52.9872 9.1049H52.2029C52.1163 9.104 52.0449 9.17597 52.0421 9.26697V13.8079C52.0497 13.8897 52.113 13.9532 52.191 13.9575ZM50.7276 13.992C50.6722 14.0424 50.5926 14.0509 50.5287 14.0131C50.2904 13.8047 50.2186 13.692 50.1083 13.519L50.1083 13.519L50.1082 13.519C50.0893 13.4892 50.0692 13.4577 50.0469 13.4235C49.5844 13.9184 49.2574 14.0663 48.6594 14.0663C47.9511 14.0663 47.4 13.6068 47.4 12.6876C47.4 11.9697 47.7724 11.4819 48.2937 11.2423C48.6787 11.0647 49.1923 11.0096 49.6364 10.962C49.7189 10.9531 49.7991 10.9445 49.8756 10.9354V10.8211C49.8756 10.7993 49.8757 10.777 49.8759 10.7545C49.8774 10.5596 49.879 10.3426 49.7735 10.1791C49.6708 10.0163 49.4756 9.9497 49.3014 9.9497C48.9804 9.9497 48.6944 10.1227 48.6244 10.4805C48.6155 10.564 48.5544 10.6308 48.4754 10.6434L47.6666 10.5502C47.6263 10.5441 47.59 10.5209 47.5664 10.486C47.5427 10.4511 47.5337 10.4075 47.5415 10.3654C47.7284 9.32571 48.6221 9.01176 49.4228 9.01176C49.8324 9.01176 50.3671 9.12606 50.6888 9.45176C51.0665 9.8235 51.0642 10.3101 51.0616 10.842C51.0614 10.8859 51.0612 10.9301 51.0612 10.9746V12.3517C51.0612 12.7226 51.1921 12.9071 51.33 13.1014C51.3464 13.1245 51.3629 13.1478 51.3792 13.1714C51.4329 13.2497 51.4448 13.3476 51.3792 13.4063C51.2072 13.5574 50.9018 13.8361 50.7343 13.9935L50.7276 13.992ZM49.8793 11.8358L49.8793 11.8786C49.8796 12.2043 49.8799 12.4804 49.7221 12.7753C49.5881 13.0242 49.3758 13.1777 49.139 13.1777C48.8165 13.1777 48.6281 12.9193 48.6281 12.5357C48.6281 11.7825 49.2708 11.6455 49.8793 11.6455V11.8358ZM62.3568 13.0982C62.3732 13.1213 62.3897 13.1446 62.4061 13.1683C62.4627 13.2497 62.4746 13.3452 62.4024 13.3993C62.2304 13.5504 61.925 13.8299 61.7574 13.9865C61.7017 14.0363 61.6224 14.0444 61.5586 14.0068C61.3193 13.7975 61.2484 13.6865 61.1365 13.5112L61.1364 13.5111C61.1177 13.4818 61.0979 13.4508 61.076 13.4173C60.6142 13.9121 60.2851 14.0601 59.6893 14.0601C58.981 14.0601 58.4299 13.6005 58.4299 12.6821C58.4299 11.9634 58.8 11.4756 59.3273 11.236C59.7131 11.0578 60.2296 11.0029 60.675 10.9556C60.7558 10.947 60.8343 10.9387 60.9092 10.9299V10.818C60.9092 10.7962 60.9093 10.7741 60.9095 10.7517C60.911 10.5567 60.9126 10.3397 60.8064 10.1767C60.7066 10.0139 60.5077 9.94656 60.3342 9.94656C60.0132 9.94656 59.7287 10.1196 59.658 10.4774C59.6489 10.5607 59.5879 10.6274 59.509 10.6402L58.6935 10.5478C58.6529 10.542 58.6163 10.5188 58.5925 10.4836C58.5687 10.4485 58.5597 10.4046 58.5677 10.3623C58.7553 9.32179 59.649 9.00862 60.4497 9.00862C60.8585 9.00862 61.3933 9.12292 61.7157 9.44862C62.0942 9.81843 62.0916 10.3013 62.0886 10.8304C62.0884 10.8771 62.0881 10.9241 62.0881 10.9714V12.3494C62.0881 12.7195 62.219 12.9039 62.3568 13.0982ZM60.1704 13.173C60.4065 13.173 60.6195 13.0195 60.7528 12.7713C60.911 12.4749 60.9109 12.1974 60.9107 11.8677L60.9107 11.8326V11.6416C60.3022 11.6416 59.6595 11.7778 59.6595 12.5318C59.6595 12.9146 59.8479 13.173 60.1704 13.173ZM63.1181 9.25131V9.898C63.1176 9.94237 63.1345 9.98498 63.1648 10.0159C63.195 10.0468 63.236 10.0634 63.2782 10.0616H64.726L63.0659 12.567C62.9902 12.7014 62.9544 12.8565 62.9632 13.0125V13.6741C62.9632 13.7696 63.0637 13.8784 63.1598 13.8244C64.0754 13.3253 65.1642 13.3233 66.0815 13.8189C66.1865 13.8761 66.2855 13.7657 66.2855 13.6701V12.9749C66.2827 12.8686 66.2258 12.7721 66.1366 12.722C65.6532 12.4363 65.0909 12.3525 64.5592 12.3658L65.9921 10.2159C66.1254 10.0233 66.1999 9.90114 66.1999 9.80797V9.25131C66.2003 9.20709 66.1835 9.1646 66.1534 9.1337C66.1234 9.10281 66.0826 9.08618 66.0405 9.08768H63.2752C63.2331 9.08519 63.192 9.10157 63.162 9.13277C63.1321 9.16396 63.1161 9.20703 63.1181 9.25131Z" fill="black"/>
<path fill-rule="evenodd" clip-rule="evenodd" d="M64.5011 16.845C64.6925 16.3447 65.1185 15.2236 64.9159 14.9519H64.9174C64.7157 14.6796 63.5837 14.8225 63.0745 14.8868L63.0734 14.8869C62.9185 14.9065 62.8947 14.7648 63.0339 14.6622C63.9381 13.9944 65.4194 14.1854 65.5914 14.4109C65.7635 14.6364 65.5445 16.1975 64.6977 16.9429C64.5674 17.0572 64.443 16.9961 64.5011 16.845ZM58.4172 17.617C60.3863 17.617 62.6794 16.9632 64.2591 15.738V15.7403C64.5205 15.5336 64.2963 15.2298 64.0297 15.3489C62.3054 16.1134 60.4546 16.5125 58.5833 16.5232C55.987 16.5232 53.4757 15.7748 51.444 14.5323C51.266 14.4234 51.1334 14.6153 51.2824 14.7554C53.2384 16.6106 55.7828 17.6311 58.4172 17.617Z" fill="#FF9900"/>
<rect x="88.5" y="0.5" width="33" height="23" rx="3.5" fill="white" stroke="#D9D9D9"/>
<path fill-rule="evenodd" clip-rule="evenodd" d="M104.058 15.5278V12.5932H105.572C106.193 12.5932 106.717 12.3852 107.144 11.975L107.247 11.8711C108.027 11.0219 107.975 9.69896 107.144 8.91331C106.728 8.49737 106.159 8.27207 105.572 8.28363H103.141V15.5278H104.058ZM104.058 11.7035V9.17321H105.596C105.926 9.17321 106.239 9.3003 106.473 9.53137C106.968 10.0166 106.979 10.8254 106.501 11.328C106.268 11.5764 105.937 11.715 105.596 11.7035H104.058ZM111.523 10.9583C111.13 10.5944 110.595 10.4095 109.917 10.4095C109.046 10.4095 108.391 10.733 107.958 11.3742L108.767 11.8884C109.063 11.4493 109.467 11.2298 109.98 11.2298C110.304 11.2298 110.617 11.3511 110.862 11.5706C111.101 11.7786 111.238 12.079 111.238 12.3967V12.6105C110.885 12.4141 110.441 12.3101 109.894 12.3101C109.257 12.3101 108.744 12.4603 108.363 12.7665C107.981 13.0726 107.787 13.477 107.787 13.9912C107.776 14.4591 107.975 14.9039 108.328 15.2043C108.687 15.5278 109.143 15.6896 109.678 15.6896C110.31 15.6896 110.811 15.4065 111.193 14.8404H111.232V15.5278H112.109V12.4718C112.109 11.8306 111.916 11.3222 111.523 10.9583ZM109.035 14.6151C108.847 14.4764 108.733 14.2511 108.733 14.0085C108.733 13.737 108.858 13.5117 109.103 13.3326C109.354 13.1535 109.667 13.0611 110.037 13.0611C110.55 13.0553 110.948 13.1709 111.233 13.4019C111.233 13.7948 111.079 14.1356 110.777 14.4244C110.504 14.7017 110.134 14.8577 109.747 14.8577C109.49 14.8635 109.24 14.7768 109.035 14.6151ZM114.079 17.7057L117.143 10.5712H116.146L114.729 14.1298H114.712L113.26 10.5712H112.263L114.273 15.2101L113.134 17.7057H114.079Z" fill="#3C4043"/>
<path d="M100.893 11.9579C100.893 11.6749 100.87 11.3918 100.825 11.1145H96.9583V12.7147H99.1733C99.0822 13.2288 98.7861 13.691 98.3533 13.9798V15.0197H99.6744C100.449 14.2976 100.893 13.2288 100.893 11.9579Z" fill="#4285F4"/>
<path d="M96.9585 16.0247C98.0631 16.0247 98.997 15.655 99.6745 15.0196L98.3535 13.9797C97.9834 14.2339 97.5108 14.3783 96.9585 14.3783C95.888 14.3783 94.9826 13.6447 94.6581 12.6626H93.2972V13.7371C93.9919 15.1409 95.4097 16.0247 96.9585 16.0247Z" fill="#34A853"/>
<path d="M94.6582 12.6626C94.4874 12.1485 94.4874 11.5882 94.6582 11.0682V9.99951H93.2971C92.7105 11.1722 92.7105 12.5587 93.2971 13.7314L94.6582 12.6626Z" fill="#FBBC04"/>
<path d="M96.9585 9.35247C97.545 9.34092 98.1087 9.56621 98.53 9.97637L99.703 8.78634C98.9571 8.08156 97.9777 7.69451 96.9585 7.70606C95.4097 7.70606 93.9919 8.5957 93.2972 9.99948L94.6581 11.074C94.9826 10.0861 95.888 9.35247 96.9585 9.35247Z" fill="#EA4335"/>
<rect x="0.5" y="0.5" width="33" height="23" rx="3.5" fill="white" stroke="#D9D9D9"/>
<path fill-rule="evenodd" clip-rule="evenodd" d="M9.44921 8.34316C9.16382 8.69506 8.70721 8.97261 8.2506 8.93296C8.19353 8.45715 8.41707 7.95161 8.67867 7.63936C8.96406 7.27755 9.46348 7.01983 9.86777 7C9.91533 7.49563 9.72983 7.98135 9.44921 8.34316ZM9.86297 9.02712C9.46071 9.003 9.09366 9.15319 8.79718 9.2745C8.60639 9.35256 8.44483 9.41867 8.32191 9.41867C8.18397 9.41867 8.01574 9.34903 7.82685 9.27084L7.82685 9.27084C7.57935 9.16838 7.29638 9.05124 6.99964 9.05686C6.31948 9.06677 5.68688 9.46823 5.33967 10.1076C4.62621 11.3863 5.15417 13.2796 5.84384 14.3205C6.18155 14.8359 6.58584 15.4009 7.11855 15.3811C7.35291 15.3719 7.5215 15.2973 7.69597 15.2202C7.89683 15.1314 8.10549 15.0391 8.43131 15.0391C8.74582 15.0391 8.94536 15.129 9.1369 15.2152C9.31903 15.2973 9.49393 15.376 9.75358 15.3712C10.3053 15.3613 10.6525 14.8557 10.9902 14.3403C11.3547 13.7871 11.5148 13.2471 11.5391 13.1652L11.542 13.1557C11.5414 13.1551 11.5369 13.153 11.5289 13.1492C11.4071 13.0911 10.476 12.6469 10.467 11.4557C10.4581 10.4559 11.2056 9.94935 11.3233 9.86961L11.3233 9.8696C11.3304 9.86476 11.3353 9.86149 11.3374 9.85978C10.8618 9.12625 10.1198 9.04695 9.86297 9.02712ZM13.6824 15.3167V7.5898H16.4649C17.9013 7.5898 18.9049 8.62071 18.9049 10.1274C18.9049 11.6341 17.8822 12.675 16.4268 12.675H14.8334V15.3167H13.6824ZM14.8333 8.60088H16.1603C17.1592 8.60088 17.7299 9.15599 17.7299 10.1324C17.7299 11.1088 17.1592 11.6688 16.1556 11.6688H14.8333V8.60088ZM22.7053 14.3898C22.4009 14.9945 21.7302 15.3761 21.0072 15.3761C19.9371 15.3761 19.1903 14.712 19.1903 13.7108C19.1903 12.7196 19.9133 12.1496 21.2498 12.0653L22.6862 11.9761V11.5499C22.6862 10.9204 22.2915 10.5784 21.5875 10.5784C21.0072 10.5784 20.5839 10.8907 20.4983 11.3665H19.4614C19.4947 10.3653 20.3984 9.63675 21.6208 9.63675C22.9383 9.63675 23.7945 10.3554 23.7945 11.4706V15.3167H22.729V14.3898H22.7053ZM21.3163 14.4592C20.7027 14.4592 20.3127 14.1519 20.3127 13.6811C20.3127 13.1954 20.6885 12.9129 21.4067 12.8683L22.6861 12.784V13.2202C22.6861 13.9438 22.0964 14.4592 21.3163 14.4592ZM27.3284 15.619C26.867 16.9721 26.3391 17.4181 25.2166 17.4181C25.131 17.4181 24.8456 17.4082 24.779 17.3884V16.4616C24.8503 16.4715 25.0263 16.4814 25.1167 16.4814C25.6256 16.4814 25.911 16.2584 26.087 15.6785L26.1916 15.3365L24.2415 9.7111H25.4449L26.8004 14.2759H26.8242L28.1798 9.7111H29.3499L27.3284 15.619Z" fill="black"/>
<rect x="176.5" y="0.5" width="33" height="23" rx="3.5" fill="white" stroke="#D9D9D9"/>
<path fill-rule="evenodd" clip-rule="evenodd" d="M193.179 16.8295C191.995 17.8275 190.459 18.43 188.781 18.43C185.036 18.43 182 15.4303 182 11.73C182 8.02972 185.036 5.03003 188.781 5.03003C190.459 5.03003 191.995 5.63253 193.179 6.63057C194.363 5.63253 195.899 5.03003 197.577 5.03003C201.322 5.03003 204.358 8.02972 204.358 11.73C204.358 15.4303 201.322 18.43 197.577 18.43C195.899 18.43 194.363 17.8275 193.179 16.8295Z" fill="#ED0006"/>
<path fill-rule="evenodd" clip-rule="evenodd" d="M193.179 16.8295C194.637 15.6006 195.561 13.772 195.561 11.73C195.561 9.68807 194.637 7.85947 193.179 6.63057C194.363 5.63253 195.899 5.03003 197.577 5.03003C201.322 5.03003 204.358 8.02972 204.358 11.73C204.358 15.4303 201.322 18.43 197.577 18.43C195.899 18.43 194.363 17.8275 193.179 16.8295Z" fill="#F9A000"/>
<path fill-rule="evenodd" clip-rule="evenodd" d="M193.179 16.8295C194.637 15.6006 195.561 13.772 195.561 11.7301C195.561 9.68811 194.637 7.85952 193.179 6.63062C191.721 7.85952 190.797 9.68811 190.797 11.7301C190.797 13.772 191.721 15.6006 193.179 16.8295Z" fill="#FF5E00"/>
<rect x="132.5" y="0.5" width="33" height="23" rx="3.5" fill="white" stroke="#D9D9D9"/>
<path fill-rule="evenodd" clip-rule="evenodd" d="M142.75 15.8583H140.691L139.146 9.79247C139.073 9.51344 138.917 9.26676 138.688 9.1505C138.117 8.85833 137.487 8.6258 136.8 8.50853V8.27499H140.118C140.576 8.27499 140.919 8.6258 140.977 9.03323L141.778 13.4087L143.837 8.27499H145.839L142.75 15.8583ZM146.984 15.8583H145.039L146.641 8.27499H148.586L146.984 15.8583ZM151.103 10.3758C151.16 9.96738 151.503 9.73384 151.904 9.73384C152.534 9.6752 153.22 9.79248 153.792 10.0836L154.136 8.45091C153.563 8.21737 152.933 8.1001 152.362 8.1001C150.474 8.1001 149.1 9.1505 149.1 10.6083C149.1 11.7174 150.073 12.2997 150.76 12.6505C151.503 13.0003 151.79 13.2338 151.732 13.5836C151.732 14.1083 151.16 14.3419 150.589 14.3419C149.902 14.3419 149.215 14.167 148.586 13.8748L148.243 15.5086C148.929 15.7997 149.673 15.917 150.36 15.917C152.477 15.9746 153.792 14.9252 153.792 13.3501C153.792 11.3666 151.103 11.2503 151.103 10.3758ZM160.6 15.8583L159.055 8.27499H157.396C157.053 8.27499 156.709 8.50853 156.595 8.85833L153.735 15.8583H155.737L156.137 14.7503H158.598L158.826 15.8583H160.6ZM157.683 10.3172L158.254 13.1752H156.652L157.683 10.3172Z" fill="#172B85"/>
<rect x="220.5" y="0.5" width="33" height="23" rx="3.5" fill="white" stroke="#D9D9D9"/>
<path fill-rule="evenodd" clip-rule="evenodd" d="M224 14.4064C224.017 14.3133 224.033 14.2232 224.049 14.1349C224.073 13.9984 224.096 13.8661 224.123 13.7339C224.236 13.1356 224.35 12.5381 224.464 11.9405L224.464 11.9405C224.578 11.343 224.693 10.7455 224.806 10.1472C224.822 10.0715 224.844 10.0209 224.919 10.0083C225.508 9.91991 226.1 9.85677 226.688 10.0052C227.201 10.1314 227.56 10.4945 227.62 10.9208C227.743 11.7701 227.248 12.4489 226.515 12.692C226.128 12.8183 225.734 12.8498 225.335 12.812C225.24 12.8025 225.212 12.8277 225.196 12.9193C225.111 13.3834 225.023 13.8444 224.932 14.3053C224.925 14.3432 224.891 14.4032 224.869 14.4032C224.655 14.4079 224.444 14.4074 224.226 14.4068C224.152 14.4066 224.077 14.4064 224 14.4064ZM225.354 12.0605C225.415 12.0605 225.475 12.0621 225.533 12.0637C225.656 12.0671 225.772 12.0702 225.885 12.0574C226.213 12.0226 226.474 11.8742 226.622 11.5617C226.789 11.2081 226.669 10.8324 226.354 10.7219C226.131 10.6429 225.901 10.6587 225.671 10.6903C225.643 10.6934 225.605 10.7376 225.599 10.7661C225.555 10.9973 225.511 11.2295 225.465 11.4705L225.465 11.4707L225.465 11.4711L225.354 12.0605ZM229.581 13.8002C229.531 13.8521 229.484 13.9044 229.439 13.9555C229.34 14.0658 229.247 14.1706 229.137 14.2548C228.807 14.5106 228.429 14.5674 228.048 14.3906C227.67 14.2169 227.516 13.8791 227.5 13.4813C227.466 12.6446 227.758 11.9532 228.46 11.4733C228.901 11.1702 229.408 11.0786 229.933 11.107C230.107 11.1173 230.28 11.1476 230.453 11.1779L230.453 11.1779C230.546 11.1942 230.639 11.2106 230.733 11.2239C230.84 11.2396 230.856 11.2996 230.837 11.3912C230.812 11.5232 230.786 11.6551 230.76 11.787C230.665 12.2792 230.57 12.7703 230.491 13.2634C230.445 13.5457 230.427 13.8349 230.409 14.1211L230.399 14.2706C230.393 14.3716 230.368 14.4127 230.264 14.4095C230.069 14.4032 229.874 14.4032 229.678 14.4095C229.578 14.4127 229.543 14.3748 229.553 14.2769C229.562 14.1688 229.567 14.0574 229.573 13.9417V13.9417V13.9417L229.573 13.9416L229.573 13.9415L229.573 13.9414L229.573 13.9413L229.573 13.9413L229.573 13.9412C229.576 13.8949 229.578 13.8479 229.581 13.8002ZM229.801 11.849C229.496 11.7637 229.241 11.8237 229.027 12.0037C228.624 12.3447 228.441 12.7867 228.476 13.3139C228.485 13.4749 228.548 13.6297 228.718 13.6991C228.888 13.7686 229.043 13.7181 229.175 13.6044C229.254 13.5349 229.329 13.456 229.386 13.3676C229.608 13.0277 229.668 12.6443 229.73 12.2548L229.73 12.2548C229.751 12.1197 229.773 11.9839 229.801 11.849ZM234.262 13.617C234.435 14.1727 234.91 14.4821 235.744 14.4821C236.317 14.4663 236.887 14.1411 237.242 13.4718C237.431 13.1119 237.5 12.7267 237.475 12.3226C237.453 11.9342 237.299 11.6059 236.984 11.3722C236.654 11.126 236.276 11.0755 235.873 11.1197C234.526 11.2712 233.975 12.7014 234.262 13.617ZM235.158 13.1534C235.158 13.1372 235.159 13.1212 235.159 13.1056C235.168 12.7425 235.256 12.4047 235.473 12.1047C235.571 11.9721 235.694 11.8711 235.857 11.8332C236.191 11.7574 236.465 11.95 236.496 12.3131C236.534 12.7583 236.427 13.1687 236.147 13.5255C236.04 13.6581 235.905 13.7496 235.731 13.7654C235.42 13.7938 235.184 13.5823 235.159 13.2508C235.157 13.2191 235.157 13.186 235.158 13.1534V13.1534V13.1534V13.1534V13.1534ZM238.224 11.186H239.024C239.011 11.3565 238.999 11.5206 238.983 11.688C239.012 11.6608 239.04 11.634 239.068 11.6077L239.068 11.6076L239.068 11.6075L239.068 11.6074L239.068 11.6074L239.068 11.6074C239.127 11.5512 239.183 11.4974 239.241 11.448C239.553 11.1765 239.909 11.0565 240.321 11.1228C240.661 11.1797 240.897 11.4291 240.935 11.7795C240.976 12.1442 240.908 12.4979 240.839 12.8509L240.839 12.8509L240.824 12.9288C240.797 13.0716 240.77 13.2145 240.743 13.3573L240.742 13.3592C240.682 13.6733 240.623 13.9869 240.56 14.299C240.551 14.3401 240.503 14.4 240.472 14.4032C240.201 14.4095 239.931 14.4064 239.66 14.4032C239.651 14.4032 239.642 14.3983 239.628 14.3908L239.628 14.3908L239.628 14.3907C239.622 14.3879 239.616 14.3846 239.609 14.3811C239.66 14.1191 239.71 13.8538 239.757 13.5886C239.83 13.1814 239.899 12.7772 239.962 12.3699C239.975 12.3005 239.968 12.2279 239.959 12.1584C239.934 11.9153 239.754 11.8048 239.521 11.8774C239.295 11.95 239.159 12.1268 239.049 12.3226C238.886 12.6099 238.829 12.9288 238.772 13.2477L238.73 13.4843L238.73 13.4844C238.682 13.755 238.634 14.0245 238.58 14.2959C238.571 14.3369 238.524 14.4 238.492 14.4032C238.271 14.4108 238.049 14.4103 237.811 14.4098H237.811H237.811H237.811L237.626 14.4095C237.834 13.3234 238.029 12.2594 238.224 11.186ZM242.763 13.7465C242.43 13.7055 242.206 13.4718 242.228 13.1435C242.298 13.1435 242.367 13.1445 242.436 13.1456C242.573 13.1477 242.708 13.1498 242.842 13.1435C243.166 13.1245 243.484 13.0708 243.78 12.9225C244.158 12.733 244.334 12.4205 244.306 12.0132C244.277 11.5996 244.054 11.2996 243.654 11.1797C243.056 10.9997 242.505 11.126 242.036 11.527C241.467 12.0132 241.253 12.6572 241.334 13.3929C241.391 13.9138 241.674 14.2864 242.191 14.419C242.745 14.5611 243.289 14.4853 243.815 14.2706C243.853 14.2548 243.897 14.1948 243.893 14.1569C243.886 14.0029 243.87 13.8488 243.855 13.6947L243.843 13.5792C243.833 13.5792 243.825 13.5786 243.819 13.5782C243.811 13.5776 243.806 13.5773 243.802 13.5792C243.768 13.5918 243.733 13.6044 243.701 13.617C243.399 13.7339 243.088 13.7844 242.763 13.7465ZM243.251 12.3478C243.059 12.4488 242.562 12.5088 242.32 12.4583C242.37 12.0384 242.814 11.7101 243.188 11.8016C243.314 11.8332 243.406 11.8995 243.428 12.0352C243.45 12.1679 243.384 12.2784 243.251 12.3478ZM245.373 13.1561C245.345 13.4655 245.565 13.7023 245.902 13.7465C246.216 13.7844 246.519 13.7371 246.815 13.6297C246.842 13.6195 246.868 13.6092 246.897 13.5979C246.922 13.5884 246.948 13.5781 246.978 13.5666C246.984 13.6333 246.991 13.6988 246.998 13.7633L246.998 13.7636V13.7636C247.012 13.8973 247.025 14.0271 247.032 14.157C247.035 14.1949 246.991 14.2548 246.956 14.2706C246.421 14.4916 245.87 14.5674 245.307 14.4127C244.8 14.2738 244.536 13.9044 244.473 13.3992C244.394 12.752 244.561 12.1679 245.011 11.688C245.496 11.1734 246.091 10.9902 246.777 11.1797C247.195 11.2965 247.419 11.5996 247.444 12.0258C247.469 12.4426 247.28 12.7551 246.887 12.9383C246.49 13.1214 246.069 13.1498 245.64 13.1593C245.555 13.1561 245.467 13.1561 245.373 13.1561ZM245.633 12.4744L245.633 12.4744C245.773 12.4674 245.907 12.4607 246.04 12.4426C246.166 12.4268 246.292 12.3889 246.405 12.3352C246.528 12.2816 246.588 12.1679 246.569 12.029C246.55 11.8964 246.462 11.8332 246.339 11.8017C245.968 11.7006 245.505 12.0416 245.464 12.4836C245.521 12.48 245.578 12.4772 245.633 12.4744ZM247.617 13.7465C247.576 13.9612 247.538 14.1727 247.498 14.4064C247.561 14.4064 247.623 14.4065 247.684 14.4066C247.926 14.4071 248.157 14.4076 248.388 14.4C248.41 14.4 248.445 14.3401 248.451 14.3022C248.483 14.1445 248.513 13.986 248.543 13.8276C248.598 13.5356 248.653 13.2437 248.722 12.9572C248.876 12.3194 249.138 12.0984 249.758 12.0163C249.783 12.0132 249.824 11.9848 249.83 11.9627C249.87 11.7812 249.905 11.5984 249.942 11.4087C249.96 11.3112 249.98 11.212 250 11.1102C249.402 11.0471 249.068 11.3943 248.779 11.8206L248.783 11.7589C248.798 11.5704 248.812 11.3786 248.829 11.1765C248.764 11.1765 248.699 11.1763 248.636 11.1761C248.45 11.1755 248.271 11.1749 248.092 11.1797C248.067 11.1828 248.02 11.2396 248.017 11.2744C247.95 12.0858 247.791 12.8795 247.632 13.6726L247.617 13.7465Z" fill="black"/>
<path fill-rule="evenodd" clip-rule="evenodd" d="M239.283 7.377C239.251 7.36857 239.22 7.36013 239.188 7.35303C239.09 7.35303 238.993 7.35303 238.889 7.35618C238.853 7.3633 238.818 7.37106 238.782 7.37888C238.738 7.38841 238.694 7.39803 238.649 7.4067C238.168 7.49826 237.715 7.66559 237.277 7.8866C236.33 8.3665 235.48 8.98848 234.718 9.72412C234.211 10.2103 233.72 10.7187 233.245 11.2396C232.411 12.1552 231.696 13.1624 231.126 14.2674C230.834 14.8389 230.569 15.423 230.45 16.0576C230.428 16.1744 230.465 16.3101 230.503 16.427C230.519 16.4743 230.607 16.509 230.667 16.528C230.683 16.5343 230.73 16.4554 230.752 16.4112C230.76 16.394 230.768 16.3765 230.776 16.3586C230.913 16.0591 231.097 15.6541 231.258 15.386C231.598 14.8177 231.866 14.3779 232.247 13.838C232.858 12.9698 233.571 12.1179 234.32 11.3665C235.029 10.6561 235.738 10.0209 236.629 9.541C237.038 9.32315 237.456 9.10846 237.885 8.93165C238.624 8.6254 239.395 8.41702 240.189 8.3002C240.274 8.28757 240.387 8.22127 240.415 8.15181C240.44 8.08867 240.381 7.96869 240.321 7.9087C240.078 7.65928 239.795 7.46985 239.443 7.41302C239.39 7.40512 239.336 7.39106 239.283 7.377ZM232.077 11.6848C232.228 11.2743 232.304 10.8481 232.313 10.4061C232.309 10.3587 232.305 10.3114 232.302 10.264C232.295 10.1693 232.288 10.0746 232.275 9.97986C232.19 9.24737 231.876 8.6254 231.375 8.09182C231.315 8.03183 231.233 7.98448 231.152 7.95606C231.07 7.92449 231.016 7.97185 231.023 8.06656C231.023 8.06856 231.023 8.07057 231.023 8.07257C231.029 8.1528 231.036 8.2359 231.051 8.31599C231.073 8.44215 231.095 8.56847 231.117 8.69487C231.195 9.14417 231.273 9.59455 231.359 10.043C231.444 10.4945 231.539 10.9428 231.639 11.388C231.674 11.5301 231.731 11.6721 231.8 11.8047C231.854 11.9058 231.929 11.8963 231.998 11.8047C232.03 11.7669 232.061 11.729 232.077 11.6848Z" fill="#FC461E"/>
</svg>
